<?xml version="1.0" encoding="UTF-8"?>
<!DOCTYPE svg PUBLIC "-//W3C//DTD SVG 1.1//EN" "http://www.w3.org/Graphics/SVG/1.1/DTD/svg11.dtd">
<svg xmlns="http://www.w3.org/2000/svg" version="1.1" width="500px" height="500px" style="shape-rendering:geometricPrecision; text-rendering:geometricPrecision; image-rendering:optimizeQuality; fill-rule:evenodd; clip-rule:evenodd" xmlns:xlink="http://www.w3.org/1999/xlink">
<g><path style="opacity:0.994" fill="#010101" d="M 140.5,144.5 C 172.167,144.5 203.833,144.5 235.5,144.5C 235.5,159.833 235.5,175.167 235.5,190.5C 233.076,190.808 230.743,190.474 228.5,189.5C 230.012,184.94 231.012,180.274 231.5,175.5C 228.5,175.5 225.5,175.5 222.5,175.5C 213.628,217.86 204.628,260.193 195.5,302.5C 181.817,302.833 168.15,302.499 154.5,301.5C 163.833,259.833 173.167,218.167 182.5,176.5C 176.193,175.669 169.859,175.169 163.5,175C 155.208,165.221 147.542,155.055 140.5,144.5 Z"/></g>
<g><path style="opacity:1" fill="#1a90c7" d="M 330.5,244.5 C 330.167,244.5 329.833,244.5 329.5,244.5C 321.87,249.987 313.537,254.487 304.5,258C 303.565,260.381 303.232,262.881 303.5,265.5C 302.685,264.571 301.852,263.571 301,262.5C 298.607,268.881 299.44,274.881 303.5,280.5C 302.833,281.833 302.167,281.833 301.5,280.5C 299.554,277.693 298.054,274.693 297,271.5C 294.755,274.881 294.088,278.548 295,282.5C 296.74,285.889 298.573,289.222 300.5,292.5C 303.227,294.259 305.894,295.926 308.5,297.5C 307.5,297.833 306.833,298.5 306.5,299.5C 303.622,300.482 300.622,301.149 297.5,301.5C 278.462,300.568 259.462,300.235 240.5,300.5C 240.5,299.5 240.5,298.5 240.5,297.5C 242.467,297.261 244.301,297.594 246,298.5C 249.282,297.345 252.448,296.679 255.5,296.5C 252.505,295.867 249.672,294.867 247,293.5C 244.993,294.669 242.827,295.335 240.5,295.5C 240.5,266.167 240.5,236.833 240.5,207.5C 241.5,207.5 242.5,207.5 243.5,207.5C 243.744,194.951 243.078,182.451 241.5,170C 241.335,167.083 242.002,164.417 243.5,162C 242.529,156.928 242.195,151.762 242.5,146.5C 255.833,146.5 269.167,146.5 282.5,146.5C 282.172,158.345 282.505,170.012 283.5,181.5C 282.273,207.163 281.44,232.83 281,258.5C 294.092,227.978 306.925,197.312 319.5,166.5C 313.974,159.474 308.641,152.308 303.5,145C 326.5,144.333 349.5,144.333 372.5,145C 358.206,178.051 344.206,211.218 330.5,244.5 Z"/></g>
<g><path style="opacity:0.935" fill="#727473" d="M 355.5,234.5 C 354.326,235.514 353.66,236.847 353.5,238.5C 352.662,238.842 352.328,239.508 352.5,240.5C 351.833,240.5 351.5,240.833 351.5,241.5C 350.833,241.5 350.5,241.833 350.5,242.5C 349.833,242.5 349.5,242.833 349.5,243.5C 348.833,243.5 348.5,243.833 348.5,244.5C 347.833,244.5 347.5,244.833 347.5,245.5C 347.167,245.5 346.833,245.5 346.5,245.5C 346.728,244.331 346.228,242.997 345,241.5C 344.549,243.929 343.715,244.096 342.5,242C 343.38,240.644 343.714,239.144 343.5,237.5C 346.637,234.835 349.471,231.835 352,228.5C 352.76,226.503 353.26,224.837 353.5,223.5C 355.223,226.94 355.89,230.606 355.5,234.5 Z"/></g>
<g><path style="opacity:0.992" fill="#707070" d="M 349.5,256.5 C 349.402,255.451 349.402,254.285 349.5,253C 349,252.5 348.5,252 348,251.5C 347.667,252.833 347.333,254.167 347,255.5C 346.5,254.333 345.667,253.5 344.5,253C 346.567,251.964 347.734,250.464 348,248.5C 346.989,249.337 345.822,249.67 344.5,249.5C 344.833,248.833 345.167,248.167 345.5,247.5C 346.167,247.5 346.5,247.167 346.5,246.5C 347.167,246.5 347.5,246.167 347.5,245.5C 348.167,245.5 348.5,245.167 348.5,244.5C 349.167,244.5 349.5,244.167 349.5,243.5C 350.167,243.5 350.5,243.167 350.5,242.5C 351.167,242.5 351.5,242.167 351.5,241.5C 352.167,241.5 352.5,241.167 352.5,240.5C 353.338,240.158 353.672,239.492 353.5,238.5C 355.104,237.713 355.771,236.38 355.5,234.5C 356.268,233.737 356.768,232.737 357,231.5C 361.282,241.823 358.782,250.156 349.5,256.5 Z"/></g>
<g><path style="opacity:1" fill="#898a89" d="M 343.5,237.5 C 343.714,239.144 343.38,240.644 342.5,242C 343.715,244.096 344.549,243.929 345,241.5C 346.228,242.997 346.728,244.331 346.5,245.5C 346.5,245.833 346.5,246.167 346.5,246.5C 345.833,246.5 345.5,246.833 345.5,247.5C 343.973,247.427 342.973,248.094 342.5,249.5C 340.973,249.427 339.973,250.094 339.5,251.5C 337.973,251.427 336.973,252.094 336.5,253.5C 333.833,254.5 331.167,255.5 328.5,256.5C 329.807,255.198 329.807,253.865 328.5,252.5C 332.308,250.772 332.308,249.439 328.5,248.5C 329.11,247.609 329.443,246.609 329.5,245.5C 330.167,245.5 330.5,245.167 330.5,244.5C 334.966,242.434 339.299,240.1 343.5,237.5 Z"/></g>
<g><path style="opacity:0.998" fill="#868686" d="M 349.5,256.5 C 345.881,259.65 341.881,262.316 337.5,264.5C 337.723,260.748 335.723,258.415 331.5,257.5C 333.349,256.407 335.016,255.074 336.5,253.5C 338.027,253.573 339.027,252.906 339.5,251.5C 341.027,251.573 342.027,250.906 342.5,249.5C 343.167,249.5 343.833,249.5 344.5,249.5C 345.822,249.67 346.989,249.337 348,248.5C 347.734,250.464 346.567,251.964 344.5,253C 345.667,253.5 346.5,254.333 347,255.5C 347.333,254.167 347.667,252.833 348,251.5C 348.5,252 349,252.5 349.5,253C 349.402,254.285 349.402,255.451 349.5,256.5 Z"/></g>
<g><path style="opacity:1" fill="#a4a7a9" d="M 328.5,248.5 C 332.308,249.439 332.308,250.772 328.5,252.5C 329.807,253.865 329.807,255.198 328.5,256.5C 328.167,257.167 327.833,257.833 327.5,258.5C 328.833,258.167 330.167,257.833 331.5,257.5C 335.723,258.415 337.723,260.748 337.5,264.5C 330.692,268.405 323.692,272.072 316.5,275.5C 313.084,274.28 310.084,272.28 307.5,269.5C 311.824,267.338 316.158,265.171 320.5,263C 321.711,262.107 321.711,261.274 320.5,260.5C 318.805,261.174 317.138,261.841 315.5,262.5C 315.881,261.069 316.881,260.236 318.5,260C 317.833,258.333 317.167,256.667 316.5,255C 320.175,252.14 324.175,249.973 328.5,248.5 Z M 327.5,258.5 C 326.685,259.837 325.518,260.837 324,261.5C 324.033,259.522 325.2,258.522 327.5,258.5 Z"/></g>
<g><path style="opacity:1" fill="#b2bcc2" d="M 329.5,244.5 C 329.5,244.833 329.5,245.167 329.5,245.5C 329.443,246.609 329.11,247.609 328.5,248.5C 324.175,249.973 320.175,252.14 316.5,255C 317.167,256.667 317.833,258.333 318.5,260C 316.881,260.236 315.881,261.069 315.5,262.5C 312.516,264.445 309.349,266.111 306,267.5C 305.292,266.619 304.458,265.953 303.5,265.5C 303.232,262.881 303.565,260.381 304.5,258C 313.537,254.487 321.87,249.987 329.5,244.5 Z"/></g>
<g><path style="opacity:1" fill="#1c86bd" d="M 316.5,275.5 C 316.281,276.675 316.614,277.675 317.5,278.5C 319.396,279.275 321.063,280.275 322.5,281.5C 323.768,282.787 323.435,283.787 321.5,284.5C 323.289,285.623 323.622,286.956 322.5,288.5C 318.89,287.153 318.557,287.82 321.5,290.5C 321.137,291.183 320.804,291.85 320.5,292.5C 320.167,292.5 319.833,292.5 319.5,292.5C 319.158,291.662 318.492,291.328 317.5,291.5C 317.027,290.094 316.027,289.427 314.5,289.5C 313.151,288.356 312.817,288.356 313.5,289.5C 313.096,290.756 312.429,291.923 311.5,293C 312.707,294.3 313.374,295.8 313.5,297.5C 311.833,297.5 310.167,297.5 308.5,297.5C 305.894,295.926 303.227,294.259 300.5,292.5C 298.573,289.222 296.74,285.889 295,282.5C 294.088,278.548 294.755,274.881 297,271.5C 298.054,274.693 299.554,277.693 301.5,280.5C 302.167,281.833 302.833,281.833 303.5,280.5C 299.44,274.881 298.607,268.881 301,262.5C 301.852,263.571 302.685,264.571 303.5,265.5C 304.458,265.953 305.292,266.619 306,267.5C 309.349,266.111 312.516,264.445 315.5,262.5C 317.138,261.841 318.805,261.174 320.5,260.5C 321.711,261.274 321.711,262.107 320.5,263C 316.158,265.171 311.824,267.338 307.5,269.5C 310.084,272.28 313.084,274.28 316.5,275.5 Z M 314.5,289.5 C 316.027,289.427 317.027,290.094 317.5,291.5C 315.973,291.573 314.973,290.906 314.5,289.5 Z"/></g>
<g><path style="opacity:1" fill="#29acdb" d="M 322.5,281.5 C 328.74,283.62 334.74,286.287 340.5,289.5C 340.5,290.5 340.5,291.5 340.5,292.5C 343.425,292.46 346.091,293.293 348.5,295C 347.692,295.308 347.025,295.808 346.5,296.5C 348.698,299.094 349.698,302.094 349.5,305.5C 348.5,305.5 347.5,305.5 346.5,305.5C 345.609,304.89 344.609,304.557 343.5,304.5C 343.158,303.662 342.492,303.328 341.5,303.5C 341.158,302.662 340.492,302.328 339.5,302.5C 339.158,301.662 338.492,301.328 337.5,301.5C 334.753,298.793 331.42,297.127 327.5,296.5C 327.158,295.662 326.492,295.328 325.5,295.5C 325.158,294.662 324.492,294.328 323.5,294.5C 323.158,293.662 322.492,293.328 321.5,293.5C 321.5,292.833 321.167,292.5 320.5,292.5C 320.804,291.85 321.137,291.183 321.5,290.5C 318.557,287.82 318.89,287.153 322.5,288.5C 323.622,286.956 323.289,285.623 321.5,284.5C 323.435,283.787 323.768,282.787 322.5,281.5 Z"/></g>
<g><path style="opacity:1" fill="#318fbc" d="M 283.5,181.5 C 282.505,170.012 282.172,158.345 282.5,146.5C 269.167,146.5 255.833,146.5 242.5,146.5C 242.195,151.762 242.529,156.928 243.5,162C 242.002,164.417 241.335,167.083 241.5,170C 243.078,182.451 243.744,194.951 243.5,207.5C 242.5,207.5 241.5,207.5 240.5,207.5C 240.5,236.833 240.5,266.167 240.5,295.5C 242.827,295.335 244.993,294.669 247,293.5C 249.672,294.867 252.505,295.867 255.5,296.5C 252.448,296.679 249.282,297.345 246,298.5C 244.301,297.594 242.467,297.261 240.5,297.5C 240.5,298.5 240.5,299.5 240.5,300.5C 259.462,300.235 278.462,300.568 297.5,301.5C 300.622,301.149 303.622,300.482 306.5,299.5C 306.196,300.15 305.863,300.817 305.5,301.5C 283.177,302.5 260.843,302.833 238.5,302.5C 239.274,249.836 239.941,197.169 240.5,144.5C 255.167,144.5 269.833,144.5 284.5,144.5C 283.685,156.815 283.351,169.148 283.5,181.5 Z"/></g>
<g><path style="opacity:1" fill="#28a3d3" d="M 313.5,289.5 C 313.833,289.5 314.167,289.5 314.5,289.5C 314.973,290.906 315.973,291.573 317.5,291.5C 317.842,292.338 318.508,292.672 319.5,292.5C 319.842,293.338 320.508,293.672 321.5,293.5C 321.842,294.338 322.508,294.672 323.5,294.5C 323.842,295.338 324.508,295.672 325.5,295.5C 325.842,296.338 326.508,296.672 327.5,296.5C 330.515,298.674 333.849,300.341 337.5,301.5C 337.842,302.338 338.508,302.672 339.5,302.5C 339.5,302.833 339.5,303.167 339.5,303.5C 339.196,304.15 338.863,304.817 338.5,305.5C 340.078,306.298 341.744,306.798 343.5,307C 344.337,308.011 344.67,309.178 344.5,310.5C 341.821,310.673 339.487,311.673 337.5,313.5C 335.65,312.758 334.984,311.758 335.5,310.5C 334.583,311.127 333.583,311.461 332.5,311.5C 324.136,307.323 316.136,302.656 308.5,297.5C 310.167,297.5 311.833,297.5 313.5,297.5C 313.374,295.8 312.707,294.3 311.5,293C 312.429,291.923 313.096,290.756 313.5,289.5 Z"/></g>
<g><path style="opacity:0.839" fill="#3391b4" d="M 293.5,312.5 C 295.167,312.5 296.833,312.5 298.5,312.5C 298.938,316.908 296.938,318.575 292.5,317.5C 292.366,315.708 292.699,314.042 293.5,312.5 Z"/></g>
<g><path style="opacity:0.924" fill="#050505" d="M 127.5,317.5 C 129.167,317.5 130.833,317.5 132.5,317.5C 133.315,321.833 131.648,324.166 127.5,324.5C 127.5,328.5 127.5,332.5 127.5,336.5C 125.5,336.5 123.5,336.5 121.5,336.5C 121.824,332.445 121.491,328.445 120.5,324.5C 119.264,325.246 117.93,325.579 116.5,325.5C 116.5,323.167 116.5,320.833 116.5,318.5C 120.371,318.815 124.038,318.482 127.5,317.5 Z"/></g>
<g><path style="opacity:0.939" fill="#050505" d="M 139.5,317.5 C 141.467,317.261 143.301,317.594 145,318.5C 147.34,324.019 149.173,329.686 150.5,335.5C 148.801,335.62 147.135,335.954 145.5,336.5C 144.167,335.833 142.833,335.167 141.5,334.5C 139.028,335.992 136.361,336.658 133.5,336.5C 134.331,329.678 136.331,323.345 139.5,317.5 Z"/></g>
<g><path style="opacity:0.903" fill="#040404" d="M 175.5,317.5 C 179.909,316.618 183.409,317.952 186,321.5C 187.73,318.452 190.23,317.786 193.5,319.5C 195.899,324.975 196.899,324.641 196.5,318.5C 200.833,318.5 205.167,318.5 209.5,318.5C 209.5,322.5 209.5,326.5 209.5,330.5C 211.877,330.216 214.044,330.216 216,330.5C 216.499,326.848 216.665,323.182 216.5,319.5C 220.798,318.8 225.131,318.467 229.5,318.5C 229.5,324.5 229.5,330.5 229.5,336.5C 226.492,336.701 223.492,337.034 220.5,337.5C 218.616,337.284 216.949,336.617 215.5,335.5C 210.014,336.19 204.514,336.857 199,337.5C 196.771,335.385 194.771,333.052 193,330.5C 193,332.5 193,334.5 193,336.5C 190.959,337.423 188.792,337.756 186.5,337.5C 186.664,334.813 186.497,332.146 186,329.5C 182.499,336.699 177.166,338.366 170,334.5C 166.786,327.036 168.62,321.37 175.5,317.5 Z M 176.5,324.5 C 181.511,325.623 181.678,327.623 177,330.5C 173.898,328.663 173.731,326.663 176.5,324.5 Z"/></g>
<g><path style="opacity:0.906" fill="#080808" d="M 154.5,318.5 C 155.5,318.5 156.5,318.5 157.5,318.5C 159.268,327.62 160.602,327.62 161.5,318.5C 163.857,318.337 166.19,318.503 168.5,319C 166.652,325.06 164.652,331.06 162.5,337C 160.231,337.758 158.064,337.591 156,336.5C 153.881,331.263 152.048,325.929 150.5,320.5C 151.949,319.828 153.282,319.161 154.5,318.5 Z"/></g>
<g><path style="opacity:0.92" fill="#0b0c0c" d="M 234.5,317.5 C 235.885,318.574 237.051,319.907 238,321.5C 240.396,316.545 243.229,316.211 246.5,320.5C 245.365,322.799 244.032,324.966 242.5,327C 243.848,329.01 245.182,331.01 246.5,333C 243.872,338.223 241.205,338.39 238.5,333.5C 236.764,337.637 234.264,338.304 231,335.5C 231.115,332.657 232.282,330.157 234.5,328C 232.913,326.155 231.579,324.155 230.5,322C 231.604,320.285 232.938,318.785 234.5,317.5 Z"/></g>
<g><path style="opacity:1" fill="#3dc7ee" d="M 340.5,289.5 C 350.432,293.55 358.598,299.883 365,308.5C 369.188,317.035 369.521,325.701 366,334.5C 365.489,332.122 364.822,329.788 364,327.5C 363.667,331.833 363.333,336.167 363,340.5C 362.83,342.715 362.163,344.715 361,346.5C 358.693,335.726 353.193,326.893 344.5,320C 340.32,317.304 336.32,314.47 332.5,311.5C 333.583,311.461 334.583,311.127 335.5,310.5C 334.984,311.758 335.65,312.758 337.5,313.5C 339.487,311.673 341.821,310.673 344.5,310.5C 344.67,309.178 344.337,308.011 343.5,307C 341.744,306.798 340.078,306.298 338.5,305.5C 338.863,304.817 339.196,304.15 339.5,303.5C 340.167,303.5 340.833,303.5 341.5,303.5C 341.842,304.338 342.508,304.672 343.5,304.5C 343.973,305.906 344.973,306.573 346.5,306.5C 346.5,306.167 346.5,305.833 346.5,305.5C 347.5,305.5 348.5,305.5 349.5,305.5C 349.698,302.094 348.698,299.094 346.5,296.5C 347.025,295.808 347.692,295.308 348.5,295C 346.091,293.293 343.425,292.46 340.5,292.5C 340.5,291.5 340.5,290.5 340.5,289.5 Z M 356.5,314.5 C 357.906,314.973 358.573,315.973 358.5,317.5C 357.094,317.027 356.427,316.027 356.5,314.5 Z M 350.5,309.5 C 352.404,309.738 353.738,310.738 354.5,312.5C 352.596,312.262 351.262,311.262 350.5,309.5 Z M 346.5,306.5 C 348.027,306.427 349.027,307.094 349.5,308.5C 347.973,308.573 346.973,307.906 346.5,306.5 Z M 343.5,304.5 C 344.609,304.557 345.609,304.89 346.5,305.5C 346.5,305.833 346.5,306.167 346.5,306.5C 344.973,306.573 343.973,305.906 343.5,304.5 Z"/></g>
<g><path style="opacity:1" fill="#2791c3" d="M 306.5,317.5 C 310.122,316.924 313.122,317.924 315.5,320.5C 312.587,322.901 312.921,324.234 316.5,324.5C 315.821,318.765 318.155,317.098 323.5,319.5C 325.899,324.975 326.899,324.641 326.5,318.5C 328.833,318.5 331.167,318.5 333.5,318.5C 333.666,324.176 333.499,329.843 333,335.5C 331.915,336.293 330.748,336.96 329.5,337.5C 327.142,335.976 325.309,333.976 324,331.5C 324.313,336.885 321.813,338.885 316.5,337.5C 316.662,335.473 316.495,333.473 316,331.5C 314.2,335.235 311.2,336.902 307,336.5C 302.632,336.802 299.965,334.802 299,330.5C 298.505,332.473 298.338,334.473 298.5,336.5C 296.5,336.5 294.5,336.5 292.5,336.5C 292.5,330.5 292.5,324.5 292.5,318.5C 294.5,318.5 296.5,318.5 298.5,318.5C 298.336,321.187 298.503,323.854 299,326.5C 299.923,322.086 302.423,319.086 306.5,317.5 Z"/></g>
<g><path style="opacity:1" fill="#288fc0" d="M 252.5,317.5 C 257.152,316.984 260.652,318.651 263,322.5C 263.483,321.552 263.649,320.552 263.5,319.5C 267.798,318.8 272.131,318.467 276.5,318.5C 276.5,324.5 276.5,330.5 276.5,336.5C 272.19,337.08 267.857,337.414 263.5,337.5C 263.664,334.813 263.497,332.146 263,329.5C 260.323,335.897 255.489,338.23 248.5,336.5C 248.5,330.5 248.5,324.5 248.5,318.5C 250.099,318.768 251.432,318.434 252.5,317.5 Z M 255.5,329.5 C 254.833,328.5 254.167,327.5 253.5,326.5C 254.077,324.348 255.244,324.015 257,325.5C 257.773,327.352 257.273,328.686 255.5,329.5 Z"/></g>
<g><path style="opacity:0.005" fill="#fefffe" d="M 253.5,326.5 C 254.167,327.5 254.833,328.5 255.5,329.5C 255.44,330.043 255.107,330.376 254.5,330.5C 253.571,329.311 253.238,327.978 253.5,326.5 Z"/></g>
<g><path style="opacity:1" fill="#2b90bf" d="M 280.5,318.5 C 283.85,318.335 287.183,318.502 290.5,319C 291.138,320.707 291.138,322.54 290.5,324.5C 288.143,324.337 285.81,324.503 283.5,325C 291.596,325.324 293.596,328.991 289.5,336C 286.298,337.483 282.964,337.817 279.5,337C 277.808,335.599 277.141,333.766 277.5,331.5C 280.187,331.664 282.854,331.497 285.5,331C 278.533,331.366 276.033,328.199 278,321.5C 279.045,320.627 279.878,319.627 280.5,318.5 Z"/></g>
</svg>
